<svg width="86px" height="41px" viewBox="0 0 86 41" version="1.1" xmlns="http://www.w3.org/2000/svg" xmlns:xlink="http://www.w3.org/1999/xlink">
    <g id="Symbols" stroke="none" stroke-width="1" fill="none" fill-rule="evenodd">
        <g id="TD_Navigation" transform="translate(-1189.000000, 0.000000)" fill="#000000">
            <g id="TD_logo" transform="translate(1189.080750, 0.000000)">
                <path d="M42.3531363,9.3 C44.5769286,9.1 46.4974766,10.6 46.6996395,12.7 C46.9018025,14.5 46.1942322,16.1 44.9812545,16.8 C42.1509733,18.5 38.6131218,16.5 38.6131218,13.4 C38.5120404,11 40.1293439,9.4 42.3531363,9.3 L42.3531363,9.3 Z M33.5590483,13.6 C33.6601298,16.4 34.772026,18.3 36.288248,19.7 C37.8044701,21.1 39.8260995,22.2 42.6563807,22.2 C48.0136986,22.2 51.753713,18.6 51.753713,13.1 C51.753713,10.2 50.5407354,8.1 49.0245133,6.7 C47.5082913,5.3 45.082336,4.2 42.2520548,4.4 C40.9379957,4.5 39.6239366,4.8 38.6131218,5.2 C35.6817592,6.7 33.4579668,9.4 33.5590483,13.6 L33.5590483,13.6 Z M81.6738284,34.6 C78.7424658,35.6 79.1467916,40.1 82.1792358,40.6 L83.1900505,40.6 C84.7062725,40.3 85.6160058,39.4 85.8181687,37.8 L85.8181687,37.2 C85.6160058,35.3 83.6954578,33.9 81.6738284,34.6 L81.6738284,34.6 Z M19.9130497,23.5 L19.9130497,40.2 C21.5303533,40.3 23.3498198,40.2 24.9671233,40.2 L24.9671233,23.3 L19.9130497,23.3 C19.9130497,23.3 19.9130497,23.4 19.9130497,23.5 L19.9130497,23.5 Z M45.6888248,23.7 C45.7899063,23.6 45.9920692,23.4 45.9920692,23.2 L39.4217736,23.2 C38.3098774,24.7 37.2990627,26.3 36.1871665,27.7 C35.3785148,26.5 34.6709445,25.5 33.7612112,24.3 C33.5590483,24 33.1547224,23.3 32.851478,23.2 C32.4471521,23.1 31.7395818,23.2 31.2341745,23.2 L26.3822639,23.2 C28.5049748,26 30.6276857,28.7 32.7503965,31.5 C30.7287671,34.2 28.5049748,37 26.3822639,39.7 C26.2811824,39.8 26.0790195,40 26.0790195,40.2 L32.2449892,40.2 C33.5590483,38.5 34.6709445,36.8 35.9850036,35.1 C37.2990627,36.8 38.4109589,38.6 39.8260995,40.2 L46.0931507,40.2 C43.9704398,37.3 41.5444845,34.4 39.4217736,31.5 C41.5444845,29 43.6671954,26.3 45.6888248,23.7 L45.6888248,23.7 Z M78.4392213,28 C78.3381399,26.4 77.3273252,25.1 76.3165105,24.3 C75.2046143,23.4 73.7894737,22.9 71.8689257,23 C70.0494593,23.1 68.9375631,24.2 68.1289113,25.4 L68.1289113,23.3 L63.0748378,23.3 L63.0748378,40.2 L68.2299928,40.2 L68.2299928,35.1 C68.2299928,32.8 67.8256669,30 68.6343187,28.6 C69.4429704,27.2 72.0710887,27.1 72.8797404,28.6 C73.0819034,29 73.1829849,29.4 73.1829849,29.8 C73.3851478,33 72.9808219,36.8 73.1829849,40.1 L78.4392213,40.1 L78.4392213,34 C78.4392213,32 78.5403028,29.9 78.4392213,28 L78.4392213,28 Z M54.7861572,35.3 C52.0569575,36.7 48.9234319,34.9 48.7212689,32 C48.519106,29.6 50.035328,27.9 52.3602019,27.6 C54.2807498,27.4 55.6958904,28.4 56.2012978,29.3 C57.5153569,31.5 56.5045422,34.5 54.7861572,35.3 L54.7861572,35.3 Z M59.1326604,25.2 C57.6164384,23.8 55.4937275,22.8 52.7645278,22.8 C50.035328,22.8 47.9126172,23.8 46.3963951,25.2 C44.880173,26.6 43.7682769,28.6 43.6671954,31.2 C43.5661139,33.9 44.6780101,36.2 45.9920692,37.6 C47.4072098,39.1 49.2266763,40.2 51.8547945,40.5 L53.674261,40.5 C56.3023792,40.2 58.2229272,39.2 59.6380678,37.6 C60.9521269,36.1 61.9629416,33.9 61.8618601,31.1 C61.7607787,28.5 60.6488825,26.5 59.1326604,25.2 L59.1326604,25.2 Z M10.31031,35 C9.09733237,35.6 7.48002884,35.5 5.55948089,35.5 L5.55948089,23.9 L5.55948089,23.8 C6.77245854,23.8 7.68219178,23.7 8.49084355,23.8 C11.1189618,24 12.8373468,26.1 13.1405912,28.6 C13.3427541,31.2 12.4330209,33.9 10.31031,35 L10.31031,35 Z M10.7146359,19.3 C7.58111031,18.7 3.63893295,19.4 -1.77635684e-15,19.1 L-1.77635684e-15,40.2 L7.2778659,40.2 C9.80490267,40.2 11.7254506,39.9 13.4438356,39 C16.3751983,37.4 18.7000721,34.1 18.7000721,29.6 C18.7000721,23.9 15.5665465,20.2 10.7146359,19.3 L10.7146359,19.3 Z M24.6638789,16.9 C24.1584715,16.4 23.2487383,15.8 22.2379236,15.9 C21.8335977,15.9 21.4292718,16 21.1260274,16.1 C20.1152127,16.5 19.2054795,17.5 19.2054795,19 C19.2054795,20.7 20.4184571,21.9 21.7325162,22 C23.6530642,22.3 25.5736121,20.8 25.3714492,18.5 C25.3714492,17.9 24.8660418,17.1 24.6638789,16.9 L24.6638789,16.9 Z M72.6775775,4.5 C71.4645999,4.6 70.3527037,4.8 69.5440519,5.3 C68.7354001,5.8 68.2299928,6.5 67.421341,7.1 C66.5116078,5.5 64.8943043,4.4 62.468349,4.5 C60.3456381,4.6 58.9304975,6 57.8186013,7 L57.8186013,4.9 L52.8656092,4.9 L52.8656092,21.8 L58.0207642,21.8 C58.2229272,19 57.7175198,14.9 58.0207642,12 C58.1218457,10.8 58.829416,9.9 59.6380678,9.5 C60.4467195,9.1 61.6596972,9 62.468349,9.6 C62.8726748,9.9 63.0748378,10.6 63.1759193,11.3 C63.4791637,14.7 62.9737563,18.4 63.1759193,21.8 L68.3310743,21.8 C68.5332372,19 68.1289113,15 68.3310743,12.2 C68.4321557,10.8 69.139726,9.8 70.1505407,9.4 C71.8689257,8.8 73.1829849,9.7 73.2840663,11.3 C73.5873107,14.5 73.0819034,18.6 73.2840663,21.9 L78.4392213,21.9 C78.2370584,18 78.6413843,13.5 78.4392213,9.8 C78.2370584,6.5 76.013266,4.3 72.6775775,4.5 L72.6775775,4.5 Z M26.6855083,21.6 L32.3460707,21.6 C32.4471521,16.2 32.3460707,10.6 32.3460707,5.1 C33.6601298,5 35.1763518,5.1 36.5914924,5.1 C36.6925739,3.5 36.5914924,1.8 36.5914924,0.1 L22.339005,0.1 L22.339005,5.1 L26.6855083,5.1 L26.6855083,21.6 L26.6855083,21.6 Z" id="XMLID_510_"></path>
            </g>
        </g>
    </g>
</svg>